<svg height="34" id="Layer_1" version="1.1" viewBox="0 0 381.5 42.9" width="298" x="0" xml:space="preserve" xmlns="http://www.w3.org/2000/svg" y="0"><style>.st0{fill:#131108}.st1{fill:#fff}</style><path d="M375.9.2c3.1 0 5.6 2.5 5.6 5.7s-2.5 5.8-5.6 5.8c-3.1 0-5.7-2.5-5.7-5.8 0-3.1 2.5-5.7 5.7-5.7zm0 .9c-2.5 0-4.6 2.2-4.6 4.8 0 2.7 2.1 4.9 4.6 4.9 2.5 0 4.6-2.1 4.6-4.8 0-2.7-2.1-4.9-4.6-4.9zm-1.1 8.2h-1V2.9c.5-.1 1-.1 1.8-.1 1 0 1.6.2 2 .5s.6.7.6 1.3c0 .8-.6 1.4-1.2 1.5.6.1.9.6 1.1 1.5.2 1 .3 1.4.4 1.6h-1.1c-.2-.2-.3-.8-.4-1.6-.2-.8-.6-1.1-1.4-1.1h-.7l-.1 2.8zm0-3.5h.7c.8 0 1.5-.3 1.5-1.1 0-.6-.4-1.1-1.5-1.1h-.7v2.2z"></path><path class="st0" d="M43.9 40.8l-1.4-1.6 1.4-22.7L31.5 40l-1.2.8H2.5l-1.3-2.1L20.1 2.9l1.3-.8h33l1.4 1.5-1.2 23.3 12.7-24 1.3-.8h27.8l1.3 2.1L78.8 40l-1.3.8z"></path><path class="st1" d="M96.4 3.5L77.5 39.3H44l1.7-29.2-15.4 29.2H2.5L21.4 3.5h33l-1.5 29.7L68.6 3.5h27.8m0-2.8H68.6l-2.5 1.5-9.7 18.4.9-16.9-2.8-3h-33L19 2.2 0 38l2.5 4.1h27.8l2.5-1.5L42.1 23l-.9 16.2 2.8 3h33.6l2.5-1.5L98.9 4.8 96.4.7z"></path><path class="st0" d="M115.6 41.4c-9.8 0-18-.5-24.5-1.4-5.4-.8-8.2-2-9.1-3.8-.3-.6-.6-1.6.1-2.9L95.3 8.2c1.4-2.6 5.8-4.3 13.9-5.4 7.4-1 16.2-1.4 26.1-1.4s18.2.5 24.8 1.4c5.4.8 8.2 2 9.2 3.8.3.6.6 1.6-.1 2.9L156 34.6c-1.4 2.6-5.8 4.3-13.9 5.4-7.7 1-16.5 1.4-26.5 1.4zm10.8-8.3l12.5-23.7H125l-12.5 23.7h13.9z"></path><path class="st1" d="M135.2 2.8c9.9 0 18.1.5 24.6 1.4 6.5 1 9.2 2.5 8 4.6L154.6 34c-1.1 2.1-5.4 3.7-12.8 4.6S125.6 40 115.6 40c-9.8 0-17.9-.5-24.3-1.4s-9.1-2.5-8-4.6L96.5 8.9c1.1-2.1 5.4-3.7 12.8-4.6 7.4-1 16-1.5 25.9-1.5m6 5.3h-17l-14 26.5h17l14-26.5m-6-8.1c-10 0-18.8.5-26.3 1.5-8.7 1.1-13.3 3-14.9 6.1L80.8 32.7c-.7 1.4-.8 2.9-.1 4.2 1.2 2.3 4.2 3.7 10.2 4.5 6.6 1 14.9 1.5 24.7 1.5 10 0 19-.5 26.5-1.4 8.7-1.1 13.3-3 15-6.1l13.2-25.1c.7-1.4.8-2.9.1-4.2-1.2-2.3-4.2-3.7-10.2-4.5-6.6-1.1-15-1.6-25-1.6zm-9.3 10.9h10.7l-11 20.8h-10.7l11-20.8z"></path><path class="st0" d="M198.3 40.8l-1.2-2.1 7.8-14.5h-13.5L183 40l-1.2.8h-27.3l-1.2-2.1 18.9-35.8 1.2-.8h36c11.6 0 20.3.5 25.8 1.4 4.3.7 6.8 1.9 7.6 3.6.3.7.6 1.8-.1 3.1l-2.7 5.1c-1.1 2-3.9 3.5-8.6 4.6-.6.1-1.3.3-2.1.4 2.2.6 3.5 1.3 4.2 2.3.5.6.6 1.4.4 2.1-.3 1.6-1.1 3.6-2.3 6.2-1.1 2.4-2.3 4.8-3.5 7l-1 1.9-1.3.8-27.5.2zM208.7 17l4.1-7.7h-13.5l-4.1 7.7h13.5z"></path><path class="st1" d="M209.4 3.5c11.6 0 20.1.5 25.6 1.4 5.5.9 7.6 2.5 6.5 4.7l-2.7 5.1c-.9 1.6-3.4 2.9-7.7 3.9s-11.7 1.5-22.2 1.5c7.1.1 12.9.5 17.4 1.1 4.5.7 6.6 1.8 6.3 3.3s-1 3.5-2.2 5.9c-1.1 2.4-2.3 4.8-3.4 6.9l-.7 1.4-.3.6h-27.7l9-16.6h-16.7l-8.8 16.6h-27.3l18.9-35.8h36m5.7 4.3h-16.7l-5.6 10.5h16.7l5.6-10.5M209.4.7h-36l-2.5 1.5L152 38l2.5 4.1h27.3l2.5-1.5 8-15.1h10.3L195.8 38l2.5 4.2H226l2.5-1.5v-.1l.3-.5c.1-.1.2-.3.3-.5l.5-.9c1.2-2.2 2.3-4.6 3.5-7 1.2-2.7 2-4.8 2.4-6.5.2-1.1 0-2.3-.7-3.2-.2-.4-.6-.7-.9-1 4-1.2 6.4-2.7 7.5-4.8l2.7-5.1c.8-1.5.8-3 .2-4.4-1.1-2.2-3.8-3.5-8.7-4.4-5.8-1.1-14.3-1.6-26.2-1.6zm-9.3 9.9h10.3l-2.6 4.9h-10.3l2.6-4.9z"></path><path class="st0" d="M251.6 40.8l-1.3-2.1 15.3-29.1H244l-1.2-2.1 2.5-4.6 1.2-.8h75l1.2 2.1-2.5 4.7-1.2.7h-22.8L280.1 40l-1.2.8z"></path><path class="st1" d="M321.5 3.5L319 8.2h-23.7l-16.4 31.1h-27.3L268 8.2h-24l2.5-4.7h75m0-2.8h-75L244 2.2l-2.5 4.7L244 11h19.3l-14.2 27 2.5 4.1h27.3l2.5-1.5L297 11h22l2.5-1.5 2.5-4.7-2.5-4.1z"></path><path class="st0" d="M337.6 40.8l-1.4-1.4v-8.3h-17.4l-10.6 9.4-.9.4H288l-1-2.5 39.7-35.8 1-.4h35.5l1.4 1.3 2 35.8-1.4 1.5h-27.6zm-1.3-17.3L338 12l-11.3 11.6h9.6z"></path><path class="st1" d="M363.2 3.5l2 35.8h-27.6v-9.7h-19.3l-11 9.7H288l39.7-35.8h35.5M339.8 10H338l-14.6 14.9h14.2l2.2-14.9M363.2.7h-35.5l-1.9.7-39.7 35.8 1.9 4.9h19.3l1.9-.7 10.2-9h15.4v6.9l2.8 2.8h27.6l2.8-3-2-35.8-2.8-2.6zm-33.1 21.4L336 16l-.9 6.1h-5z"></path></svg>