<svg xmlns:xlink="http://www.w3.org/1999/xlink" xmlns="http://www.w3.org/2000/svg" width="187" height="20" viewBox="0 0 187 20" fill="none">
<path d="M46.2018 0.559326H38.5338L31.6795 17.7243C31.3848 18.4609 31.9522 19.2503 32.7724 19.2503H54.2018C54.4899 19.2503 54.7494 19.0814 54.8549 18.8239L55.3783 17.5513H39.4134L46.2018 0.559326Z" fill="black"/>
<path d="M5.33519 2.43136L0.204885 15.2803C-0.560374 17.1946 0.912968 19.2503 3.04822 19.2503H24.2577C25.52 19.2503 26.6503 18.5031 27.1011 17.3719L32.2314 4.52713C32.9966 2.61287 31.5233 0.5572 29.3881 0.5572L8.18072 0.552979C6.91849 0.552979 5.78819 1.30011 5.33519 2.42925V2.43136ZM20.2335 17.5534H9.68925C8.37424 17.5534 7.46824 16.2871 7.93883 15.1094L12.3039 4.17678C12.7525 3.04975 13.8784 2.30473 15.134 2.30051L25.7025 2.25407C27.0197 2.24774 27.9323 3.51618 27.4617 4.69597L23.0769 15.6771C22.6261 16.8084 21.4936 17.5534 20.2313 17.5534H20.2335Z" fill="black"/>
<path d="M72.7834 0.559239L66.6965 7.17156C66.5624 7.31719 66.3887 7.42905 66.1974 7.49025L65.21 7.81317C64.9153 7.91025 64.5921 7.88915 64.3128 7.75618L63.8422 7.53246C63.6509 7.44171 63.4882 7.30031 63.3716 7.12724L59.0286 0.557129H51.3606L58.1248 10.3775C58.2853 10.6117 58.5338 10.7806 58.8175 10.8481L60.0269 11.1373C60.4359 11.2365 60.6646 11.6544 60.5129 12.0342L57.995 18.3321C57.8191 18.7732 58.1578 19.2481 58.6503 19.2481H64.834C65.1242 19.2481 65.3859 19.075 65.4893 18.8154L68.3414 11.6733C68.4294 11.456 68.6273 11.2956 68.8648 11.2533L71.2177 10.8186C71.4838 10.77 71.7235 10.6328 71.8972 10.4345L80.4646 0.559239H72.7812H72.7834Z" fill="black"/>
<path d="M106.169 0.804062L95.6884 12.9945C95.2442 13.5095 94.3756 13.1592 94.4482 12.4943L95.6708 1.30215C95.7148 0.903257 95.3893 0.557129 94.9715 0.557129H83.8665C83.5762 0.557129 83.3145 0.730193 83.2112 0.98979L76.2865 18.3321C76.1106 18.7732 76.4492 19.2481 76.9418 19.2481H83.1034C83.3937 19.2481 83.6554 19.075 83.7587 18.8154L89.2871 4.96816C89.3904 4.70856 89.6499 4.5355 89.9402 4.5355H90.3932C90.8308 4.53128 91.1628 4.90906 91.0881 5.32273L89.0364 16.7619C88.9616 17.1734 89.2937 17.5512 89.7291 17.5512H95.7412C96.3041 17.5512 96.8363 17.3085 97.1925 16.8906L107.517 4.77821C107.649 4.62203 107.849 4.53128 108.058 4.53128H108.416C108.911 4.52705 109.252 5.00193 109.076 5.44514L103.93 18.3342C103.754 18.7753 104.093 19.2502 104.586 19.2502H107.873C108.166 19.2502 108.425 19.0771 108.531 18.8154L115.429 1.4731C115.605 1.032 115.264 0.557129 114.771 0.557129H106.71C106.501 0.557129 106.301 0.647882 106.167 0.801952L106.169 0.804062ZM98.888 13.1296C98.8264 13.1296 98.7692 13.1233 98.7121 13.1127C98.877 13.1233 98.9496 13.1275 98.888 13.1296Z" fill="black"/>
<path d="M142.547 0.578254L121.032 0.548706C120.74 0.548706 120.48 0.71966 120.375 0.981367L113.448 18.3321C113.272 18.7732 113.61 19.2481 114.103 19.2481H120.315C120.606 19.2481 120.867 19.075 120.971 18.8154L123.79 11.7578C123.893 11.4961 124.155 11.3251 124.445 11.3251H138.55C140.003 11.3251 141.307 10.4661 141.83 9.16393L144.291 3.02437C144.764 1.84669 143.858 0.580364 142.545 0.580364L142.547 0.578254ZM134.486 9.62614H125.668C125.175 9.62614 124.834 9.15127 125.012 8.71017L127.398 2.73523C127.502 2.47563 127.761 2.30257 128.051 2.30257L137.111 2.25613C138.431 2.2498 139.343 3.51613 138.873 4.69803L137.769 7.46073C137.248 8.76504 135.944 9.62614 134.488 9.62614H134.486Z" fill="black"/>
<path d="M186.957 18.3343L180.146 1.28113C179.972 0.84636 179.537 0.559326 179.051 0.559326L163.119 0.569879C162.633 0.569879 162.2 0.856912 162.026 1.29168L161.411 2.83449H169.131L169.303 2.40394C169.477 1.96917 169.912 1.68213 170.396 1.68213H174.761C175.247 1.68213 175.682 1.96917 175.856 2.40394L178.369 8.71023C178.545 9.15134 178.204 9.62621 177.712 9.62621H167.44C166.948 9.62621 166.607 9.15134 166.785 8.71023L168.454 4.53136H160.733L155.223 18.3322C155.047 18.7733 155.385 19.2482 155.878 19.2482H162.092C162.383 19.2482 162.644 19.0751 162.748 18.8155L165.567 11.7579C165.67 11.4961 165.932 11.3252 166.222 11.3252H178.928C179.218 11.3252 179.48 11.4983 179.583 11.7579L182.402 18.8155C182.506 19.0772 182.767 19.2482 183.058 19.2482H186.297C186.789 19.2482 187.13 18.7733 186.952 18.3322L186.957 18.3343Z" fill="black"/>
<path d="M156.782 2.83446L157.518 0.996175C157.712 0.514972 157.342 0 156.808 0L150.692 0.00422108C150.402 0.00422108 150.14 0.177285 150.037 0.436882L149.078 2.83446H156.784H156.782Z" fill="#009640"/>
<path d="M149.076 2.83435L142.877 18.3342C142.701 18.7753 143.04 19.2501 143.532 19.2501H149.714C150.004 19.2501 150.266 19.0792 150.369 18.8175L156.782 2.83435H149.076Z" fill="black"/>
<path d="M156.1 4.53137L155.218 6.74111H147.519L148.397 4.53137H156.1Z" fill="#E30613"/>
</svg>